<mxfile host="app.diagrams.net" modified="2022-06-12T06:42:51.287Z" agent="5.0 (Macintosh; Intel Mac OS X 10_15_7) AppleWebKit/537.36 (KHTML, like Gecko) Chrome/102.0.0.0 Safari/537.36" etag="7tvPObY4vZDttrLO2eTf" version="20.0.0" type="github">
  <diagram id="ADOvb4N2J4wJ2JhkrIqv" name="Page-1">
    <mxGraphModel dx="946" dy="645" grid="1" gridSize="10" guides="1" tooltips="1" connect="1" arrows="1" fold="1" page="1" pageScale="1" pageWidth="850" pageHeight="1100" math="0" shadow="0">
      <root>
        <mxCell id="0" />
        <mxCell id="1" parent="0" />
        <mxCell id="nuiJHOnd_xzDCAts_HaV-39" value="" style="rounded=1;whiteSpace=wrap;html=1;absoluteArcSize=1;arcSize=14;strokeWidth=2;fontSize=12;fillColor=none;dashed=1;" parent="1" vertex="1">
          <mxGeometry x="705" y="405" width="220" height="315" as="geometry" />
        </mxCell>
        <mxCell id="nuiJHOnd_xzDCAts_HaV-34" style="edgeStyle=orthogonalEdgeStyle;rounded=0;orthogonalLoop=1;jettySize=auto;html=1;exitX=0.5;exitY=1;exitDx=0;exitDy=0;fontSize=12;entryX=0.5;entryY=0;entryDx=0;entryDy=0;" parent="1" source="nuiJHOnd_xzDCAts_HaV-28" target="nuiJHOnd_xzDCAts_HaV-35" edge="1">
          <mxGeometry relative="1" as="geometry">
            <mxPoint x="815" y="305" as="targetPoint" />
          </mxGeometry>
        </mxCell>
        <mxCell id="nuiJHOnd_xzDCAts_HaV-28" value="" style="rounded=1;whiteSpace=wrap;html=1;absoluteArcSize=1;arcSize=14;strokeWidth=2;fontSize=16;fillColor=none;dashed=1;" parent="1" vertex="1">
          <mxGeometry x="710" y="65" width="210" height="180" as="geometry" />
        </mxCell>
        <mxCell id="nuiJHOnd_xzDCAts_HaV-4" style="edgeStyle=orthogonalEdgeStyle;rounded=0;orthogonalLoop=1;jettySize=auto;html=1;exitX=0.5;exitY=1;exitDx=0;exitDy=0;" parent="1" source="nuiJHOnd_xzDCAts_HaV-2" target="nuiJHOnd_xzDCAts_HaV-3" edge="1">
          <mxGeometry relative="1" as="geometry" />
        </mxCell>
        <mxCell id="nuiJHOnd_xzDCAts_HaV-6" value="" style="rounded=1;whiteSpace=wrap;html=1;absoluteArcSize=1;arcSize=14;strokeWidth=2;fillColor=none;dashed=1;" parent="1" vertex="1">
          <mxGeometry x="70" y="50" width="420" height="210" as="geometry" />
        </mxCell>
        <mxCell id="nuiJHOnd_xzDCAts_HaV-2" value="&lt;b&gt;US-Accidents (2016-2021)&lt;br&gt;from Moosavi et al.&amp;nbsp;&lt;br&gt;&lt;/b&gt;" style="rounded=1;whiteSpace=wrap;html=1;absoluteArcSize=1;arcSize=14;strokeWidth=1;" parent="1" vertex="1">
          <mxGeometry x="90" y="60" width="160" height="70" as="geometry" />
        </mxCell>
        <mxCell id="nuiJHOnd_xzDCAts_HaV-17" style="edgeStyle=orthogonalEdgeStyle;rounded=0;orthogonalLoop=1;jettySize=auto;html=1;exitX=0.5;exitY=1;exitDx=0;exitDy=0;entryX=0.5;entryY=0;entryDx=0;entryDy=0;fontSize=12;" parent="1" source="nuiJHOnd_xzDCAts_HaV-3" target="nuiJHOnd_xzDCAts_HaV-15" edge="1">
          <mxGeometry relative="1" as="geometry" />
        </mxCell>
        <mxCell id="nuiJHOnd_xzDCAts_HaV-3" value="&lt;b&gt;Extract Dallas City, Texas&amp;nbsp;&lt;br&gt;Traffic Accidents&lt;br&gt;&lt;/b&gt;" style="rounded=1;whiteSpace=wrap;html=1;absoluteArcSize=1;arcSize=14;strokeWidth=1;" parent="1" vertex="1">
          <mxGeometry x="90" y="170" width="160" height="70" as="geometry" />
        </mxCell>
        <mxCell id="nuiJHOnd_xzDCAts_HaV-29" style="edgeStyle=orthogonalEdgeStyle;rounded=0;orthogonalLoop=1;jettySize=auto;html=1;exitX=1;exitY=0.5;exitDx=0;exitDy=0;entryX=0;entryY=0.5;entryDx=0;entryDy=0;fontSize=16;" parent="1" source="nuiJHOnd_xzDCAts_HaV-5" target="nuiJHOnd_xzDCAts_HaV-28" edge="1">
          <mxGeometry relative="1" as="geometry" />
        </mxCell>
        <mxCell id="nuiJHOnd_xzDCAts_HaV-5" value="&lt;b&gt;Extract &lt;br&gt;Dallas City Shapefiles&lt;/b&gt;" style="rounded=1;whiteSpace=wrap;html=1;absoluteArcSize=1;arcSize=14;strokeWidth=1;" parent="1" vertex="1">
          <mxGeometry x="300" y="125" width="160" height="60" as="geometry" />
        </mxCell>
        <mxCell id="nuiJHOnd_xzDCAts_HaV-7" value="&lt;b&gt;&lt;font style=&quot;font-size: 16px;&quot;&gt;DATA COLLECTION&lt;/font&gt;&lt;/b&gt;" style="text;html=1;align=center;verticalAlign=middle;resizable=0;points=[];autosize=1;strokeColor=none;fillColor=none;" parent="1" vertex="1">
          <mxGeometry x="210" y="20" width="170" height="20" as="geometry" />
        </mxCell>
        <mxCell id="nuiJHOnd_xzDCAts_HaV-18" style="edgeStyle=orthogonalEdgeStyle;rounded=0;orthogonalLoop=1;jettySize=auto;html=1;exitX=0.5;exitY=1;exitDx=0;exitDy=0;entryX=0.5;entryY=0;entryDx=0;entryDy=0;fontSize=12;" parent="1" source="nuiJHOnd_xzDCAts_HaV-15" target="nuiJHOnd_xzDCAts_HaV-13" edge="1">
          <mxGeometry relative="1" as="geometry" />
        </mxCell>
        <mxCell id="nuiJHOnd_xzDCAts_HaV-15" value="&lt;font style=&quot;font-size: 12px;&quot;&gt;&lt;b&gt;Dallas City, Texas &lt;br&gt;Traffic Accidents&amp;nbsp;&lt;br&gt;Raw Data&lt;/b&gt;&lt;/font&gt;" style="shape=parallelogram;html=1;strokeWidth=1;perimeter=parallelogramPerimeter;whiteSpace=wrap;rounded=1;arcSize=12;size=0.23;fontSize=16;fillColor=none;" parent="1" vertex="1">
          <mxGeometry x="70" y="300" width="200" height="70" as="geometry" />
        </mxCell>
        <mxCell id="nuiJHOnd_xzDCAts_HaV-19" value="" style="group" parent="1" vertex="1" connectable="0">
          <mxGeometry x="65" y="420" width="210" height="280" as="geometry" />
        </mxCell>
        <mxCell id="nuiJHOnd_xzDCAts_HaV-8" value="&lt;b&gt;Data Cleaning&lt;/b&gt;" style="rounded=1;whiteSpace=wrap;html=1;absoluteArcSize=1;arcSize=14;strokeWidth=1;" parent="nuiJHOnd_xzDCAts_HaV-19" vertex="1">
          <mxGeometry x="25" y="20" width="160" height="60" as="geometry" />
        </mxCell>
        <mxCell id="nuiJHOnd_xzDCAts_HaV-9" value="&lt;b&gt;Data Transformation&lt;/b&gt;" style="rounded=1;whiteSpace=wrap;html=1;absoluteArcSize=1;arcSize=14;strokeWidth=1;" parent="nuiJHOnd_xzDCAts_HaV-19" vertex="1">
          <mxGeometry x="25" y="110" width="160" height="60" as="geometry" />
        </mxCell>
        <mxCell id="nuiJHOnd_xzDCAts_HaV-13" value="" style="rounded=1;whiteSpace=wrap;html=1;absoluteArcSize=1;arcSize=14;strokeWidth=2;dashed=1;fontSize=16;fillColor=none;" parent="nuiJHOnd_xzDCAts_HaV-19" vertex="1">
          <mxGeometry width="210" height="280" as="geometry" />
        </mxCell>
        <mxCell id="nuiJHOnd_xzDCAts_HaV-11" style="edgeStyle=orthogonalEdgeStyle;rounded=0;orthogonalLoop=1;jettySize=auto;html=1;exitX=0.5;exitY=1;exitDx=0;exitDy=0;entryX=0.5;entryY=0;entryDx=0;entryDy=0;fontSize=16;" parent="nuiJHOnd_xzDCAts_HaV-19" source="nuiJHOnd_xzDCAts_HaV-8" target="nuiJHOnd_xzDCAts_HaV-9" edge="1">
          <mxGeometry relative="1" as="geometry" />
        </mxCell>
        <mxCell id="nuiJHOnd_xzDCAts_HaV-10" value="&lt;b&gt;Data Imputation&lt;/b&gt;" style="rounded=1;whiteSpace=wrap;html=1;absoluteArcSize=1;arcSize=14;strokeWidth=1;" parent="nuiJHOnd_xzDCAts_HaV-19" vertex="1">
          <mxGeometry x="25" y="200" width="160" height="60" as="geometry" />
        </mxCell>
        <mxCell id="nuiJHOnd_xzDCAts_HaV-12" style="edgeStyle=orthogonalEdgeStyle;rounded=0;orthogonalLoop=1;jettySize=auto;html=1;exitX=0.5;exitY=1;exitDx=0;exitDy=0;fontSize=16;" parent="nuiJHOnd_xzDCAts_HaV-19" source="nuiJHOnd_xzDCAts_HaV-9" target="nuiJHOnd_xzDCAts_HaV-10" edge="1">
          <mxGeometry relative="1" as="geometry" />
        </mxCell>
        <mxCell id="nuiJHOnd_xzDCAts_HaV-20" value="&lt;font style=&quot;font-size: 16px;&quot;&gt;&lt;b&gt;DATA WRANGLING&lt;/b&gt;&lt;/font&gt;" style="text;html=1;align=center;verticalAlign=middle;resizable=0;points=[];autosize=1;strokeColor=none;fillColor=none;fontSize=12;" parent="1" vertex="1">
          <mxGeometry x="90" y="710" width="160" height="20" as="geometry" />
        </mxCell>
        <mxCell id="nuiJHOnd_xzDCAts_HaV-32" style="edgeStyle=orthogonalEdgeStyle;rounded=0;orthogonalLoop=1;jettySize=auto;html=1;exitX=0.5;exitY=0;exitDx=0;exitDy=0;entryX=0.5;entryY=1;entryDx=0;entryDy=0;entryPerimeter=0;fontSize=12;" parent="1" source="nuiJHOnd_xzDCAts_HaV-22" target="nuiJHOnd_xzDCAts_HaV-31" edge="1">
          <mxGeometry relative="1" as="geometry" />
        </mxCell>
        <mxCell id="nuiJHOnd_xzDCAts_HaV-22" value="&lt;b&gt;Feature Engineering&lt;/b&gt;" style="rounded=1;whiteSpace=wrap;html=1;absoluteArcSize=1;arcSize=14;strokeWidth=1;" parent="1" vertex="1">
          <mxGeometry x="320" y="600" width="160" height="60" as="geometry" />
        </mxCell>
        <mxCell id="nuiJHOnd_xzDCAts_HaV-27" style="edgeStyle=orthogonalEdgeStyle;rounded=0;orthogonalLoop=1;jettySize=auto;html=1;exitX=0.5;exitY=1;exitDx=0;exitDy=0;entryX=0.5;entryY=0;entryDx=0;entryDy=0;fontSize=16;" parent="1" source="nuiJHOnd_xzDCAts_HaV-25" target="nuiJHOnd_xzDCAts_HaV-26" edge="1">
          <mxGeometry relative="1" as="geometry" />
        </mxCell>
        <mxCell id="nuiJHOnd_xzDCAts_HaV-25" value="&lt;b&gt;Re-projection&lt;/b&gt;" style="rounded=1;whiteSpace=wrap;html=1;absoluteArcSize=1;arcSize=14;strokeWidth=1;" parent="1" vertex="1">
          <mxGeometry x="735" y="77" width="160" height="60" as="geometry" />
        </mxCell>
        <mxCell id="nuiJHOnd_xzDCAts_HaV-26" value="&lt;b&gt;Study Area Mapping&lt;/b&gt;" style="rounded=1;whiteSpace=wrap;html=1;absoluteArcSize=1;arcSize=14;strokeWidth=1;" parent="1" vertex="1">
          <mxGeometry x="735" y="168" width="160" height="60" as="geometry" />
        </mxCell>
        <mxCell id="nuiJHOnd_xzDCAts_HaV-30" value="&lt;b&gt;&lt;font style=&quot;font-size: 16px;&quot;&gt;DATA PREPROCESSING&lt;/font&gt;&lt;/b&gt;" style="text;html=1;align=center;verticalAlign=middle;resizable=0;points=[];autosize=1;strokeColor=none;fillColor=none;" parent="1" vertex="1">
          <mxGeometry x="715" y="30" width="200" height="20" as="geometry" />
        </mxCell>
        <mxCell id="nuiJHOnd_xzDCAts_HaV-37" style="edgeStyle=orthogonalEdgeStyle;rounded=0;orthogonalLoop=1;jettySize=auto;html=1;exitX=1;exitY=0.5;exitDx=0;exitDy=0;exitPerimeter=0;fontSize=12;" parent="1" source="nuiJHOnd_xzDCAts_HaV-31" target="nuiJHOnd_xzDCAts_HaV-36" edge="1">
          <mxGeometry relative="1" as="geometry" />
        </mxCell>
        <mxCell id="nuiJHOnd_xzDCAts_HaV-38" style="edgeStyle=orthogonalEdgeStyle;rounded=0;orthogonalLoop=1;jettySize=auto;html=1;exitX=0.5;exitY=0;exitDx=0;exitDy=0;exitPerimeter=0;entryX=0;entryY=0.5;entryDx=0;entryDy=0;fontSize=12;" parent="1" source="nuiJHOnd_xzDCAts_HaV-31" target="nuiJHOnd_xzDCAts_HaV-35" edge="1">
          <mxGeometry relative="1" as="geometry" />
        </mxCell>
        <mxCell id="nuiJHOnd_xzDCAts_HaV-31" value="&lt;font style=&quot;font-size: 12px;&quot;&gt;&lt;b&gt;Preprocessed&amp;nbsp;&lt;br&gt;Data&lt;/b&gt;&lt;br&gt;&lt;/font&gt;" style="strokeWidth=1;html=1;shape=mxgraph.flowchart.direct_data;whiteSpace=wrap;fontSize=16;fillColor=none;" parent="1" vertex="1">
          <mxGeometry x="330" y="500" width="140" height="60" as="geometry" />
        </mxCell>
        <mxCell id="nuiJHOnd_xzDCAts_HaV-44" style="edgeStyle=orthogonalEdgeStyle;rounded=0;orthogonalLoop=1;jettySize=auto;html=1;exitX=0.5;exitY=1;exitDx=0;exitDy=0;entryX=0.5;entryY=0;entryDx=0;entryDy=0;fontSize=12;" parent="1" source="nuiJHOnd_xzDCAts_HaV-35" target="nuiJHOnd_xzDCAts_HaV-39" edge="1">
          <mxGeometry relative="1" as="geometry" />
        </mxCell>
        <mxCell id="nuiJHOnd_xzDCAts_HaV-35" value="&lt;b&gt;Basic Exploratory &lt;br&gt;Spatial Data Analysis&lt;br&gt;(ESDA)&lt;br&gt;&lt;/b&gt;" style="rounded=1;whiteSpace=wrap;html=1;absoluteArcSize=1;arcSize=14;strokeWidth=1;" parent="1" vertex="1">
          <mxGeometry x="735" y="305" width="160" height="60" as="geometry" />
        </mxCell>
        <mxCell id="nuiJHOnd_xzDCAts_HaV-42" style="edgeStyle=orthogonalEdgeStyle;rounded=0;orthogonalLoop=1;jettySize=auto;html=1;exitX=1;exitY=0.5;exitDx=0;exitDy=0;entryX=0;entryY=0.5;entryDx=0;entryDy=0;fontSize=12;" parent="1" source="nuiJHOnd_xzDCAts_HaV-36" target="nuiJHOnd_xzDCAts_HaV-39" edge="1">
          <mxGeometry relative="1" as="geometry" />
        </mxCell>
        <mxCell id="nuiJHOnd_xzDCAts_HaV-36" value="&lt;b&gt;Exploratory&lt;br&gt;&amp;nbsp;Data Analysis &lt;br&gt;(EDA)&lt;/b&gt;" style="rounded=1;whiteSpace=wrap;html=1;absoluteArcSize=1;arcSize=14;strokeWidth=1;" parent="1" vertex="1">
          <mxGeometry x="510" y="532.5" width="160" height="60" as="geometry" />
        </mxCell>
        <mxCell id="nuiJHOnd_xzDCAts_HaV-41" style="edgeStyle=orthogonalEdgeStyle;rounded=0;orthogonalLoop=1;jettySize=auto;html=1;exitX=1;exitY=0.75;exitDx=0;exitDy=0;entryX=0;entryY=0.5;entryDx=0;entryDy=0;fontSize=12;" parent="1" source="nuiJHOnd_xzDCAts_HaV-13" target="nuiJHOnd_xzDCAts_HaV-22" edge="1">
          <mxGeometry relative="1" as="geometry" />
        </mxCell>
        <mxCell id="nuiJHOnd_xzDCAts_HaV-45" value="&lt;font style=&quot;font-size: 16px;&quot;&gt;&lt;b&gt;ADVANCED SPACE-TIME &lt;br&gt;STATISTICAL&amp;nbsp;ANALYSIS&lt;br&gt;&lt;/b&gt;&lt;/font&gt;" style="text;html=1;align=center;verticalAlign=middle;resizable=0;points=[];autosize=1;strokeColor=none;fillColor=none;fontSize=12;" parent="1" vertex="1">
          <mxGeometry x="715" y="740" width="210" height="40" as="geometry" />
        </mxCell>
        <mxCell id="nuiJHOnd_xzDCAts_HaV-49" style="edgeStyle=orthogonalEdgeStyle;rounded=0;orthogonalLoop=1;jettySize=auto;html=1;exitX=0.5;exitY=1;exitDx=0;exitDy=0;entryX=0.5;entryY=0;entryDx=0;entryDy=0;fontSize=12;" parent="1" source="nuiJHOnd_xzDCAts_HaV-46" target="nuiJHOnd_xzDCAts_HaV-47" edge="1">
          <mxGeometry relative="1" as="geometry" />
        </mxCell>
        <mxCell id="nuiJHOnd_xzDCAts_HaV-46" value="&lt;b&gt;Spatial Autocorrelation&lt;/b&gt;" style="rounded=1;whiteSpace=wrap;html=1;absoluteArcSize=1;arcSize=14;strokeWidth=1;" parent="1" vertex="1">
          <mxGeometry x="735" y="420" width="160" height="40" as="geometry" />
        </mxCell>
        <mxCell id="nuiJHOnd_xzDCAts_HaV-50" style="edgeStyle=orthogonalEdgeStyle;rounded=0;orthogonalLoop=1;jettySize=auto;html=1;exitX=0.5;exitY=1;exitDx=0;exitDy=0;entryX=0.5;entryY=0;entryDx=0;entryDy=0;fontSize=12;" parent="1" source="nuiJHOnd_xzDCAts_HaV-47" target="nuiJHOnd_xzDCAts_HaV-48" edge="1">
          <mxGeometry relative="1" as="geometry" />
        </mxCell>
        <mxCell id="nuiJHOnd_xzDCAts_HaV-47" value="&lt;b&gt;Optimized Hot Spot Analysis&lt;/b&gt;" style="rounded=1;whiteSpace=wrap;html=1;absoluteArcSize=1;arcSize=14;strokeWidth=1;" parent="1" vertex="1">
          <mxGeometry x="735" y="480" width="160" height="40" as="geometry" />
        </mxCell>
        <mxCell id="nuiJHOnd_xzDCAts_HaV-52" style="edgeStyle=orthogonalEdgeStyle;rounded=0;orthogonalLoop=1;jettySize=auto;html=1;exitX=0.5;exitY=1;exitDx=0;exitDy=0;entryX=0.5;entryY=0;entryDx=0;entryDy=0;fontSize=12;" parent="1" source="nuiJHOnd_xzDCAts_HaV-48" target="nuiJHOnd_xzDCAts_HaV-51" edge="1">
          <mxGeometry relative="1" as="geometry" />
        </mxCell>
        <mxCell id="nuiJHOnd_xzDCAts_HaV-48" value="&lt;b&gt;Cluster-Outlier Analysis&lt;/b&gt;" style="rounded=1;whiteSpace=wrap;html=1;absoluteArcSize=1;arcSize=14;strokeWidth=1;" parent="1" vertex="1">
          <mxGeometry x="735" y="540" width="160" height="40" as="geometry" />
        </mxCell>
        <mxCell id="nuiJHOnd_xzDCAts_HaV-54" style="edgeStyle=orthogonalEdgeStyle;rounded=0;orthogonalLoop=1;jettySize=auto;html=1;exitX=0.5;exitY=1;exitDx=0;exitDy=0;entryX=0.5;entryY=0;entryDx=0;entryDy=0;fontSize=12;" parent="1" source="nuiJHOnd_xzDCAts_HaV-51" target="nuiJHOnd_xzDCAts_HaV-53" edge="1">
          <mxGeometry relative="1" as="geometry" />
        </mxCell>
        <mxCell id="nuiJHOnd_xzDCAts_HaV-51" value="&lt;b&gt;Space-Time Cube Creation by Aggregating Points&amp;nbsp;&lt;/b&gt;" style="rounded=1;whiteSpace=wrap;html=1;absoluteArcSize=1;arcSize=14;strokeWidth=1;" parent="1" vertex="1">
          <mxGeometry x="735" y="600" width="160" height="40" as="geometry" />
        </mxCell>
        <mxCell id="nuiJHOnd_xzDCAts_HaV-53" value="&lt;b&gt;Emerging Hot Spot Analysis&lt;/b&gt;" style="rounded=1;whiteSpace=wrap;html=1;absoluteArcSize=1;arcSize=14;strokeWidth=1;" parent="1" vertex="1">
          <mxGeometry x="735" y="660" width="160" height="40" as="geometry" />
        </mxCell>
      </root>
    </mxGraphModel>
  </diagram>
</mxfile>
